<?xml version="1.0" encoding="iso-8859-1"?><!-- Generator: Adobe Illustrator 22.1.0, SVG Export Plug-In . SVG Version: 6.00 Build 0)  --><svg xmlns="http://www.w3.org/2000/svg" xmlns:xlink="http://www.w3.org/1999/xlink" viewBox="0 0 48 48" width="1600px" height="1600px"><g></g><polygon style="fill:#64B5F6;" points="37.72,28 34.57,28 24.86,20 28,20 "/><polygon style="fill:#64B5F6;" points="23.14,20 13.43,28 10.28,28 20,20 "/><path style="fill:#455A64;" d="M11,10V6c0-1.105,0.895-2,2-2h22c1.105,0,2,0.895,2,2v4H11z"/><path style="fill:#BBDEFB;" d="M11,8h26v11c0,1.105-0.895,2-2,2H13c-1.105,0-2-0.895-2-2V8z"/><rect x="19" y="11" style="fill:#42A5F5;" width="14" height="2"/><rect x="15" y="11" style="fill:#42A5F5;" width="2" height="2"/><rect x="19" y="15" style="fill:#42A5F5;" width="14" height="2"/><rect x="15" y="15" style="fill:#42A5F5;" width="2" height="2"/><rect x="4" y="27" style="fill:#546E7A;" width="18" height="13"/><rect x="6" y="29" style="fill:#BBDEFB;" width="14" height="8"/><rect x="11" y="40" style="fill:#455A64;" width="4" height="2"/><path style="fill:#455A64;" d="M17,42c-2,0-6,0-8,0s-2,2-2,2h12C19,44,19,42,17,42z"/><rect x="26" y="27" style="fill:#546E7A;" width="18" height="13"/><rect x="28" y="29" style="fill:#BBDEFB;" width="14" height="8"/><rect x="33" y="40" style="fill:#455A64;" width="4" height="2"/><path style="fill:#455A64;" d="M39,42c-2,0-6,0-8,0s-2,2-2,2h12C41,44,41,42,39,42z"/></svg>