<?xml version="1.0" encoding="iso-8859-1"?>
<!-- Generator: Adobe Illustrator 24.1.0, SVG Export Plug-In . SVG Version: 6.00 Build 0)  -->
<svg version="1.1" id="Layer_2" xmlns="http://www.w3.org/2000/svg" xmlns:xlink="http://www.w3.org/1999/xlink" x="0px" y="0px"
	 viewBox="0 0 48 48" style="enable-background:new 0 0 48 48;" xml:space="preserve">
<linearGradient id="SVGID_1_" gradientUnits="userSpaceOnUse" x1="8" y1="35.5" x2="40" y2="35.5">
	<stop  offset="0" style="stop-color:#11408A"/>
	<stop  offset="1" style="stop-color:#103F8F"/>
</linearGradient>
<path style="fill:url(#SVGID_1_);" d="M40,28H8c0,0,0,10.271,0,11c0,2.209,7.163,4,16,4s16-1.791,16-4C40,38.271,40,28,40,28z"/>
<linearGradient id="SVGID_2_" gradientUnits="userSpaceOnUse" x1="8" y1="25.5" x2="40" y2="25.5">
	<stop  offset="0" style="stop-color:#1D59B3"/>
	<stop  offset="1" style="stop-color:#195BBC"/>
</linearGradient>
<path style="fill:url(#SVGID_2_);" d="M40,18H8c0,0,0,10.271,0,11c0,2.209,7.163,4,16,4s16-1.791,16-4C40,28.271,40,18,40,18z"/>
<linearGradient id="SVGID_3_" gradientUnits="userSpaceOnUse" x1="8" y1="15" x2="40" y2="15">
	<stop  offset="0" style="stop-color:#3079D6"/>
	<stop  offset="1" style="stop-color:#297CD2"/>
</linearGradient>
<path style="fill:url(#SVGID_3_);" d="M40,8H8c0,0,0,9.756,0,10.5c0,1.933,7.163,3.5,16,3.5s16-1.567,16-3.5C40,17.756,40,8,40,8z"
	/>
<linearGradient id="SVGID_4_" gradientUnits="userSpaceOnUse" x1="8" y1="8" x2="40" y2="8">
	<stop  offset="0" style="stop-color:#42A3F2"/>
	<stop  offset="1" style="stop-color:#42A4EB"/>
</linearGradient>
<ellipse style="fill:url(#SVGID_4_);" cx="24" cy="8" rx="16" ry="3"/>
</svg>