<?xml version="1.0" encoding="iso-8859-1"?>
<!-- Generator: Adobe Illustrator 23.0.3, SVG Export Plug-In . SVG Version: 6.00 Build 0)  -->
<svg version="1.1" id="Layer_1" xmlns="http://www.w3.org/2000/svg" xmlns:xlink="http://www.w3.org/1999/xlink" x="0px" y="0px"
	 viewBox="0 0 48 48" style="enable-background:new 0 0 48 48;" xml:space="preserve">
<path style="fill:#546E7A;" d="M6,8h36v26H6V8z"/>
<path style="fill:#BBDEFB;" d="M8,10h32v21H8V10z"/>
<path style="fill:#455A64;" d="M21,34h6v3h-6V34z M33,37c-2,0-16,0-18,0s-2,2-2,2v1h22v-1C35,39,35,37,33,37z"/>
<g>
	<path style="fill:#1565C0;" d="M15.5,20.9L19,23v2.5l-6-3.7v-2.1l6-3.2V19L15.5,20.9z M23,27.5h-2l4-14h2L23,27.5z M32.5,21L29,19
		v-2.5l6,3.4V22l-6,3.5V23L32.5,21z"/>
</g>
</svg>